<mxfile host="app.diagrams.net" agent="Mozilla/5.0 (Windows NT 10.0; Win64; x64) AppleWebKit/537.36 (KHTML, like Gecko) Chrome/126.0.0.0 YaBrowser/24.7.0.0 Safari/537.36" version="24.7.12">
  <diagram name="Страница — 1" id="IfS7SvXLoU5SS_Ybnb9n">
    <mxGraphModel dx="462" dy="261" grid="1" gridSize="10" guides="1" tooltips="1" connect="1" arrows="1" fold="1" page="1" pageScale="1" pageWidth="827" pageHeight="1169" math="0" shadow="0">
      <root>
        <mxCell id="0" />
        <mxCell id="1" parent="0" />
        <mxCell id="vIUB9aDAUuu2Td9zJKIK-6" value="Simplify service interaction management" style="rounded=0;whiteSpace=wrap;html=1;strokeColor=none;strokeWidth=3;fillColor=#F9B55C;fontSize=12;fontColor=#333333;" vertex="1" parent="1">
          <mxGeometry x="73.99999999999955" y="350" width="202" height="90" as="geometry" />
        </mxCell>
        <mxCell id="vIUB9aDAUuu2Td9zJKIK-7" value="&lt;font style=&quot;font-size: 11px;&quot;&gt;&lt;b&gt;System Architect&lt;/b&gt;&lt;/font&gt;&lt;div style=&quot;font-size: 11px;&quot;&gt;Secure integration of multiple services and centralized authentication&lt;/div&gt;" style="rounded=0;whiteSpace=wrap;html=1;strokeColor=none;strokeWidth=3;fillColor=#B9D36C;fontSize=12;fontColor=#333333;" vertex="1" parent="1">
          <mxGeometry x="184" y="240" width="202" height="90" as="geometry" />
        </mxCell>
        <mxCell id="vIUB9aDAUuu2Td9zJKIK-8" value="&lt;b&gt;DevOps Engineer&lt;/b&gt;&lt;br&gt;&lt;div style=&quot;font-size: 11px;&quot;&gt;Efficient infrastructure management and traffic optimization&lt;/div&gt;" style="rounded=0;whiteSpace=wrap;html=1;strokeColor=none;strokeWidth=3;fillColor=#B9D36C;fontSize=12;fontColor=#333333;" vertex="1" parent="1">
          <mxGeometry x="694" y="240" width="202" height="90" as="geometry" />
        </mxCell>
        <mxCell id="vIUB9aDAUuu2Td9zJKIK-9" value="&lt;b&gt;Developer&lt;/b&gt;&lt;br&gt;&lt;div style=&quot;font-size: 11px;&quot;&gt;Automate API documentation updates and ensure API compliance&lt;/div&gt;" style="rounded=0;whiteSpace=wrap;html=1;strokeColor=none;strokeWidth=3;fillColor=#B9D36C;fontSize=12;fontColor=#333333;" vertex="1" parent="1">
          <mxGeometry x="1184" y="240" width="202" height="90" as="geometry" />
        </mxCell>
        <mxCell id="vIUB9aDAUuu2Td9zJKIK-10" value="Reduce workload related to managing infrastructure" style="rounded=0;whiteSpace=wrap;html=1;strokeColor=none;strokeWidth=3;fillColor=#F9B55C;fontSize=12;fontColor=#333333;" vertex="1" parent="1">
          <mxGeometry x="563.9999999999995" y="350" width="202" height="90" as="geometry" />
        </mxCell>
        <mxCell id="vIUB9aDAUuu2Td9zJKIK-12" value="" style="endArrow=none;html=1;rounded=0;" edge="1" parent="1">
          <mxGeometry width="50" height="50" relative="1" as="geometry">
            <mxPoint x="284" y="440" as="sourcePoint" />
            <mxPoint x="284" y="350" as="targetPoint" />
          </mxGeometry>
        </mxCell>
        <mxCell id="vIUB9aDAUuu2Td9zJKIK-13" value="Ensure system security and scalability" style="rounded=0;whiteSpace=wrap;html=1;strokeColor=none;strokeWidth=3;fillColor=#F9B55C;fontSize=12;fontColor=#333333;" vertex="1" parent="1">
          <mxGeometry x="293.99999999999955" y="350" width="202" height="90" as="geometry" />
        </mxCell>
        <mxCell id="vIUB9aDAUuu2Td9zJKIK-16" value="Reduce workload related to managing infrastructure" style="rounded=0;whiteSpace=wrap;html=1;strokeColor=none;strokeWidth=3;fillColor=#F9B55C;fontSize=12;fontColor=#333333;" vertex="1" parent="1">
          <mxGeometry x="823.9999999999995" y="350" width="202" height="90" as="geometry" />
        </mxCell>
        <mxCell id="vIUB9aDAUuu2Td9zJKIK-17" value="" style="endArrow=none;html=1;rounded=0;" edge="1" parent="1">
          <mxGeometry width="50" height="50" relative="1" as="geometry">
            <mxPoint x="794.83" y="440" as="sourcePoint" />
            <mxPoint x="794.83" y="350" as="targetPoint" />
          </mxGeometry>
        </mxCell>
        <mxCell id="vIUB9aDAUuu2Td9zJKIK-18" value="Centralize traffic management using API Gateway, including request validation" style="rounded=0;whiteSpace=wrap;html=1;strokeColor=none;strokeWidth=3;fillColor=#82C4CC;fontSize=12;fontColor=#333333;aspect=fixed;direction=south;" vertex="1" parent="1">
          <mxGeometry x="614.5" y="459" width="101" height="101" as="geometry" />
        </mxCell>
        <mxCell id="vIUB9aDAUuu2Td9zJKIK-19" value="Simplify integration between services for seamless communication" style="rounded=0;whiteSpace=wrap;html=1;strokeColor=none;strokeWidth=3;fillColor=#82C4CC;fontSize=12;fontColor=#333333;aspect=fixed;direction=south;" vertex="1" parent="1">
          <mxGeometry x="124.5" y="459" width="101" height="101" as="geometry" />
        </mxCell>
        <mxCell id="vIUB9aDAUuu2Td9zJKIK-20" value="Request Routing" style="rounded=0;whiteSpace=wrap;html=1;strokeColor=none;strokeWidth=3;fillColor=#9C96C4;fontSize=12;fontColor=#333333;aspect=fixed;direction=south;align=center;verticalAlign=middle;fontFamily=Helvetica;gradientColor=none;" vertex="1" parent="1">
          <mxGeometry x="124.5" y="580" width="101" height="101" as="geometry" />
        </mxCell>
        <mxCell id="vIUB9aDAUuu2Td9zJKIK-21" value="&#xa;Request Validation&#xa;&#xa;" style="rounded=0;whiteSpace=wrap;html=1;strokeColor=none;strokeWidth=3;fillColor=#9C96C4;fontSize=12;fontColor=#333333;aspect=fixed;direction=south;align=center;verticalAlign=middle;fontFamily=Helvetica;gradientColor=none;" vertex="1" parent="1">
          <mxGeometry x="560" y="580" width="101" height="101" as="geometry" />
        </mxCell>
        <mxCell id="vIUB9aDAUuu2Td9zJKIK-22" value="Audit (Traffic Logging)" style="rounded=0;whiteSpace=wrap;html=1;strokeColor=none;strokeWidth=3;fillColor=#9C96C4;fontSize=12;fontColor=#333333;aspect=fixed;direction=south;align=center;verticalAlign=middle;fontFamily=Helvetica;gradientColor=none;" vertex="1" parent="1">
          <mxGeometry x="673" y="580" width="101" height="101" as="geometry" />
        </mxCell>
        <mxCell id="vIUB9aDAUuu2Td9zJKIK-23" value="Automate infrastructure scaling and load balancing" style="rounded=0;whiteSpace=wrap;html=1;strokeColor=none;strokeWidth=3;fillColor=#82C4CC;fontSize=12;fontColor=#333333;aspect=fixed;direction=south;" vertex="1" parent="1">
          <mxGeometry x="814" y="459" width="101" height="101" as="geometry" />
        </mxCell>
        <mxCell id="vIUB9aDAUuu2Td9zJKIK-24" value="Automate infrastructure scaling and load balancing" style="rounded=0;whiteSpace=wrap;html=1;strokeColor=none;strokeWidth=3;fillColor=#82C4CC;fontSize=12;fontColor=#333333;aspect=fixed;direction=south;" vertex="1" parent="1">
          <mxGeometry x="934" y="459" width="101" height="101" as="geometry" />
        </mxCell>
        <mxCell id="vIUB9aDAUuu2Td9zJKIK-26" value="" style="endArrow=none;html=1;rounded=0;" edge="1" parent="1">
          <mxGeometry width="50" height="50" relative="1" as="geometry">
            <mxPoint x="794.76" y="549" as="sourcePoint" />
            <mxPoint x="794.76" y="459" as="targetPoint" />
          </mxGeometry>
        </mxCell>
        <mxCell id="vIUB9aDAUuu2Td9zJKIK-27" value="" style="endArrow=none;html=1;rounded=0;" edge="1" parent="1">
          <mxGeometry width="50" height="50" relative="1" as="geometry">
            <mxPoint x="794.76" y="675.5" as="sourcePoint" />
            <mxPoint x="794.76" y="585.5" as="targetPoint" />
          </mxGeometry>
        </mxCell>
        <mxCell id="vIUB9aDAUuu2Td9zJKIK-29" value="Load Balancing" style="rounded=0;whiteSpace=wrap;html=1;strokeColor=none;strokeWidth=3;fillColor=#9C96C4;fontSize=12;fontColor=#333333;aspect=fixed;direction=south;align=center;verticalAlign=middle;fontFamily=Helvetica;gradientColor=none;" vertex="1" parent="1">
          <mxGeometry x="814" y="580" width="101" height="101" as="geometry" />
        </mxCell>
        <mxCell id="vIUB9aDAUuu2Td9zJKIK-30" value="Response Caching" style="rounded=0;whiteSpace=wrap;html=1;strokeColor=none;strokeWidth=3;fillColor=#9C96C4;fontSize=12;fontColor=#333333;aspect=fixed;direction=south;align=center;verticalAlign=middle;fontFamily=Helvetica;gradientColor=none;" vertex="1" parent="1">
          <mxGeometry x="934" y="580" width="101" height="101" as="geometry" />
        </mxCell>
        <mxCell id="vIUB9aDAUuu2Td9zJKIK-31" value="Reduce workload related to managing infrastructure" style="rounded=0;whiteSpace=wrap;html=1;strokeColor=none;strokeWidth=3;fillColor=#F9B55C;fontSize=12;fontColor=#333333;" vertex="1" parent="1">
          <mxGeometry x="1073.9999999999995" y="350" width="202" height="90" as="geometry" />
        </mxCell>
        <mxCell id="vIUB9aDAUuu2Td9zJKIK-32" value="Ensure compliance with API standards" style="rounded=0;whiteSpace=wrap;html=1;strokeColor=none;strokeWidth=3;fillColor=#F9B55C;fontSize=12;fontColor=#333333;" vertex="1" parent="1">
          <mxGeometry x="1293.9999999999995" y="350" width="202" height="90" as="geometry" />
        </mxCell>
        <mxCell id="vIUB9aDAUuu2Td9zJKIK-33" value="" style="endArrow=none;html=1;rounded=0;" edge="1" parent="1">
          <mxGeometry width="50" height="50" relative="1" as="geometry">
            <mxPoint x="1284.5" y="440" as="sourcePoint" />
            <mxPoint x="1284.5" y="350" as="targetPoint" />
          </mxGeometry>
        </mxCell>
        <mxCell id="vIUB9aDAUuu2Td9zJKIK-34" value="Minimize time spent on routine documentation updates" style="rounded=0;whiteSpace=wrap;html=1;strokeColor=none;strokeWidth=3;fillColor=#82C4CC;fontSize=12;fontColor=#333333;aspect=fixed;direction=south;" vertex="1" parent="1">
          <mxGeometry x="1124.5" y="459" width="101" height="101" as="geometry" />
        </mxCell>
        <mxCell id="vIUB9aDAUuu2Td9zJKIK-35" value="OpenAPI Scheme Generation" style="rounded=0;whiteSpace=wrap;html=1;strokeColor=none;strokeWidth=3;fillColor=#9C96C4;fontSize=12;fontColor=#333333;aspect=fixed;direction=south;align=center;verticalAlign=middle;fontFamily=Helvetica;gradientColor=none;" vertex="1" parent="1">
          <mxGeometry x="1124.5" y="580" width="101" height="101" as="geometry" />
        </mxCell>
        <mxCell id="vIUB9aDAUuu2Td9zJKIK-36" value="Ensure API schemas are compliant and updated" style="rounded=0;whiteSpace=wrap;html=1;strokeColor=none;strokeWidth=3;fillColor=#82C4CC;fontSize=12;fontColor=#333333;aspect=fixed;direction=south;" vertex="1" parent="1">
          <mxGeometry x="1294" y="459" width="101" height="101" as="geometry" />
        </mxCell>
        <mxCell id="vIUB9aDAUuu2Td9zJKIK-37" value="Customize error handling for different HTTP error codes" style="rounded=0;whiteSpace=wrap;html=1;strokeColor=none;strokeWidth=3;fillColor=#82C4CC;fontSize=12;fontColor=#333333;aspect=fixed;direction=south;" vertex="1" parent="1">
          <mxGeometry x="1414" y="459" width="101" height="101" as="geometry" />
        </mxCell>
        <mxCell id="vIUB9aDAUuu2Td9zJKIK-38" value="Request Validation" style="rounded=0;whiteSpace=wrap;html=1;strokeColor=none;strokeWidth=3;fillColor=#9C96C4;fontSize=12;fontColor=#333333;aspect=fixed;direction=south;align=center;verticalAlign=middle;fontFamily=Helvetica;gradientColor=none;" vertex="1" parent="1">
          <mxGeometry x="1294" y="580" width="101" height="101" as="geometry" />
        </mxCell>
        <mxCell id="vIUB9aDAUuu2Td9zJKIK-39" value="Errors Handling and Response Customization" style="rounded=0;whiteSpace=wrap;html=1;strokeColor=none;strokeWidth=3;fillColor=#9C96C4;fontSize=12;fontColor=#333333;aspect=fixed;direction=south;align=center;verticalAlign=middle;fontFamily=Helvetica;gradientColor=none;" vertex="1" parent="1">
          <mxGeometry x="1414" y="580" width="101" height="101" as="geometry" />
        </mxCell>
        <mxCell id="vIUB9aDAUuu2Td9zJKIK-40" value="" style="endArrow=none;html=1;rounded=0;" edge="1" parent="1">
          <mxGeometry width="50" height="50" relative="1" as="geometry">
            <mxPoint x="1284.66" y="554.5" as="sourcePoint" />
            <mxPoint x="1284.66" y="464.5" as="targetPoint" />
          </mxGeometry>
        </mxCell>
        <mxCell id="vIUB9aDAUuu2Td9zJKIK-42" value="" style="endArrow=none;html=1;rounded=0;" edge="1" parent="1">
          <mxGeometry width="50" height="50" relative="1" as="geometry">
            <mxPoint x="1284.66" y="675.5" as="sourcePoint" />
            <mxPoint x="1284.66" y="585.5" as="targetPoint" />
          </mxGeometry>
        </mxCell>
        <mxCell id="vIUB9aDAUuu2Td9zJKIK-44" value="Implement Single Sign-On (SSO) for unified authentication" style="rounded=0;whiteSpace=wrap;html=1;strokeColor=none;strokeWidth=3;fillColor=#82C4CC;fontSize=12;fontColor=#333333;aspect=fixed;direction=south;" vertex="1" parent="1">
          <mxGeometry x="294" y="459" width="101" height="101" as="geometry" />
        </mxCell>
        <mxCell id="vIUB9aDAUuu2Td9zJKIK-45" value="Simplify integration between services for seamless communication" style="rounded=0;whiteSpace=wrap;html=1;strokeColor=none;strokeWidth=3;fillColor=#82C4CC;fontSize=12;fontColor=#333333;aspect=fixed;direction=south;" vertex="1" parent="1">
          <mxGeometry x="414" y="459" width="101" height="101" as="geometry" />
        </mxCell>
        <mxCell id="vIUB9aDAUuu2Td9zJKIK-46" value="Audit (Traffic Logging)" style="rounded=0;whiteSpace=wrap;html=1;strokeColor=none;strokeWidth=3;fillColor=#9C96C4;fontSize=12;fontColor=#333333;aspect=fixed;direction=south;align=center;verticalAlign=middle;fontFamily=Helvetica;gradientColor=none;" vertex="1" parent="1">
          <mxGeometry x="414" y="580" width="101" height="101" as="geometry" />
        </mxCell>
        <mxCell id="vIUB9aDAUuu2Td9zJKIK-47" value="Single Sign-On" style="rounded=0;whiteSpace=wrap;html=1;strokeColor=none;strokeWidth=3;fillColor=#9C96C4;fontSize=12;fontColor=#333333;aspect=fixed;direction=south;align=center;verticalAlign=middle;fontFamily=Helvetica;gradientColor=none;" vertex="1" parent="1">
          <mxGeometry x="294" y="580" width="101" height="101" as="geometry" />
        </mxCell>
        <mxCell id="vIUB9aDAUuu2Td9zJKIK-48" value="" style="endArrow=none;html=1;rounded=0;" edge="1" parent="1">
          <mxGeometry width="50" height="50" relative="1" as="geometry">
            <mxPoint x="284.76" y="554.5" as="sourcePoint" />
            <mxPoint x="284.76" y="464.5" as="targetPoint" />
          </mxGeometry>
        </mxCell>
        <mxCell id="vIUB9aDAUuu2Td9zJKIK-50" value="" style="endArrow=none;html=1;rounded=0;" edge="1" parent="1">
          <mxGeometry width="50" height="50" relative="1" as="geometry">
            <mxPoint x="284.76" y="675.5" as="sourcePoint" />
            <mxPoint x="284.76" y="585.5" as="targetPoint" />
          </mxGeometry>
        </mxCell>
        <mxCell id="vIUB9aDAUuu2Td9zJKIK-52" value="" style="endArrow=none;html=1;rounded=0;" edge="1" parent="1">
          <mxGeometry width="50" height="50" relative="1" as="geometry">
            <mxPoint x="537" y="554.5" as="sourcePoint" />
            <mxPoint x="537" y="464.5" as="targetPoint" />
          </mxGeometry>
        </mxCell>
        <mxCell id="vIUB9aDAUuu2Td9zJKIK-53" value="" style="endArrow=none;html=1;rounded=0;" edge="1" parent="1">
          <mxGeometry width="50" height="50" relative="1" as="geometry">
            <mxPoint x="537" y="675.5" as="sourcePoint" />
            <mxPoint x="537" y="585.5" as="targetPoint" />
          </mxGeometry>
        </mxCell>
        <mxCell id="vIUB9aDAUuu2Td9zJKIK-54" value="" style="endArrow=none;html=1;rounded=0;" edge="1" parent="1">
          <mxGeometry width="50" height="50" relative="1" as="geometry">
            <mxPoint x="537" y="440" as="sourcePoint" />
            <mxPoint x="537" y="350" as="targetPoint" />
          </mxGeometry>
        </mxCell>
        <mxCell id="vIUB9aDAUuu2Td9zJKIK-55" value="" style="endArrow=none;html=1;rounded=0;" edge="1" parent="1">
          <mxGeometry width="50" height="50" relative="1" as="geometry">
            <mxPoint x="537.5" y="330" as="sourcePoint" />
            <mxPoint x="537.5" y="240" as="targetPoint" />
          </mxGeometry>
        </mxCell>
        <mxCell id="vIUB9aDAUuu2Td9zJKIK-60" value="" style="endArrow=none;html=1;rounded=0;" edge="1" parent="1">
          <mxGeometry width="50" height="50" relative="1" as="geometry">
            <mxPoint x="1054" y="554.5" as="sourcePoint" />
            <mxPoint x="1054" y="464.5" as="targetPoint" />
          </mxGeometry>
        </mxCell>
        <mxCell id="vIUB9aDAUuu2Td9zJKIK-61" value="" style="endArrow=none;html=1;rounded=0;" edge="1" parent="1">
          <mxGeometry width="50" height="50" relative="1" as="geometry">
            <mxPoint x="1054" y="675.5" as="sourcePoint" />
            <mxPoint x="1054" y="585.5" as="targetPoint" />
          </mxGeometry>
        </mxCell>
        <mxCell id="vIUB9aDAUuu2Td9zJKIK-62" value="" style="endArrow=none;html=1;rounded=0;" edge="1" parent="1">
          <mxGeometry width="50" height="50" relative="1" as="geometry">
            <mxPoint x="1054" y="440" as="sourcePoint" />
            <mxPoint x="1054" y="350" as="targetPoint" />
          </mxGeometry>
        </mxCell>
        <mxCell id="vIUB9aDAUuu2Td9zJKIK-63" value="" style="endArrow=none;html=1;rounded=0;" edge="1" parent="1">
          <mxGeometry width="50" height="50" relative="1" as="geometry">
            <mxPoint x="1054.5" y="330" as="sourcePoint" />
            <mxPoint x="1054.5" y="240" as="targetPoint" />
          </mxGeometry>
        </mxCell>
        <mxCell id="vIUB9aDAUuu2Td9zJKIK-64" value="" style="endArrow=none;html=1;rounded=0;" edge="1" parent="1">
          <mxGeometry width="50" height="50" relative="1" as="geometry">
            <mxPoint x="74" y="340" as="sourcePoint" />
            <mxPoint x="1524" y="340" as="targetPoint" />
          </mxGeometry>
        </mxCell>
        <mxCell id="vIUB9aDAUuu2Td9zJKIK-65" value="" style="endArrow=none;html=1;rounded=0;" edge="1" parent="1">
          <mxGeometry width="50" height="50" relative="1" as="geometry">
            <mxPoint x="70" y="450" as="sourcePoint" />
            <mxPoint x="1520" y="450" as="targetPoint" />
          </mxGeometry>
        </mxCell>
        <mxCell id="vIUB9aDAUuu2Td9zJKIK-66" value="" style="endArrow=none;html=1;rounded=0;" edge="1" parent="1">
          <mxGeometry width="50" height="50" relative="1" as="geometry">
            <mxPoint x="74" y="570" as="sourcePoint" />
            <mxPoint x="1524" y="570" as="targetPoint" />
          </mxGeometry>
        </mxCell>
      </root>
    </mxGraphModel>
  </diagram>
</mxfile>
